<svg xmlns="http://www.w3.org/2000/svg" viewBox="0 0 500 500"><g id="freepik--background-complete--inject-2"><rect y="382.4" width="500" height="0.25" style="fill:#ebebeb"></rect><rect x="416.78" y="398.49" width="33.12" height="0.25" style="fill:#ebebeb"></rect><rect x="322.53" y="401.21" width="8.69" height="0.25" style="fill:#ebebeb"></rect><rect x="396.59" y="389.21" width="19.19" height="0.25" style="fill:#ebebeb"></rect><rect x="52.46" y="390.89" width="43.19" height="0.25" style="fill:#ebebeb"></rect><rect x="104.56" y="390.89" width="6.33" height="0.25" style="fill:#ebebeb"></rect><rect x="131.47" y="395.11" width="93.68" height="0.25" style="fill:#ebebeb"></rect><path d="M237,337.8H43.91a5.71,5.71,0,0,1-5.7-5.71V60.66A5.71,5.71,0,0,1,43.91,55H237a5.71,5.71,0,0,1,5.71,5.71V332.09A5.71,5.71,0,0,1,237,337.8ZM43.91,55.2a5.46,5.46,0,0,0-5.45,5.46V332.09a5.46,5.46,0,0,0,5.45,5.46H237a5.47,5.47,0,0,0,5.46-5.46V60.66A5.47,5.47,0,0,0,237,55.2Z" style="fill:#ebebeb"></path><path d="M453.31,337.8H260.21a5.72,5.72,0,0,1-5.71-5.71V60.66A5.72,5.72,0,0,1,260.21,55h193.1A5.71,5.71,0,0,1,459,60.66V332.09A5.71,5.71,0,0,1,453.31,337.8ZM260.21,55.2a5.47,5.47,0,0,0-5.46,5.46V332.09a5.47,5.47,0,0,0,5.46,5.46h193.1a5.47,5.47,0,0,0,5.46-5.46V60.66a5.47,5.47,0,0,0-5.46-5.46Z" style="fill:#ebebeb"></path><rect x="344.42" y="111.7" width="105.48" height="270.61" style="fill:#ebebeb"></rect><rect x="431.32" y="111.7" width="18.58" height="270.61" style="fill:#f5f5f5"></rect><rect x="353.26" y="123.09" width="14.47" height="26.45" style="fill:#e6e6e6"></rect><rect x="371.23" y="123.09" width="14.47" height="26.45" style="fill:#e6e6e6"></rect><rect x="389.2" y="123.09" width="14.47" height="26.45" style="fill:#e6e6e6"></rect><rect x="407.17" y="123.09" width="14.47" height="26.45" style="fill:#e6e6e6"></rect><rect x="353.26" y="157.27" width="14.47" height="26.45" style="fill:#e6e6e6"></rect><rect x="371.23" y="157.27" width="14.47" height="26.45" style="fill:#e6e6e6"></rect><rect x="389.2" y="157.27" width="14.47" height="26.45" style="fill:#e6e6e6"></rect><rect x="407.17" y="157.27" width="14.47" height="26.45" style="fill:#e6e6e6"></rect><rect x="353.26" y="191.45" width="14.47" height="26.45" style="fill:#e6e6e6"></rect><rect x="371.23" y="191.45" width="14.47" height="26.45" style="fill:#e6e6e6"></rect><rect x="389.2" y="191.45" width="14.47" height="26.45" style="fill:#e6e6e6"></rect><rect x="407.17" y="191.45" width="14.47" height="26.45" style="fill:#e6e6e6"></rect><rect x="353.26" y="225.64" width="14.47" height="26.45" style="fill:#e6e6e6"></rect><rect x="371.23" y="225.64" width="14.47" height="26.45" style="fill:#e6e6e6"></rect><rect x="389.2" y="225.64" width="14.47" height="26.45" style="fill:#e6e6e6"></rect><rect x="407.17" y="225.64" width="14.47" height="26.45" style="fill:#e6e6e6"></rect><rect x="353.26" y="259.82" width="14.47" height="26.45" style="fill:#e6e6e6"></rect><rect x="371.23" y="259.82" width="14.47" height="26.45" style="fill:#e6e6e6"></rect><rect x="389.2" y="259.82" width="14.47" height="26.45" style="fill:#e6e6e6"></rect><rect x="407.17" y="259.82" width="14.47" height="26.45" style="fill:#e6e6e6"></rect><rect x="353.26" y="294" width="14.47" height="26.45" style="fill:#e6e6e6"></rect><rect x="371.23" y="294" width="14.47" height="26.45" style="fill:#e6e6e6"></rect><rect x="389.2" y="294" width="14.47" height="26.45" style="fill:#e6e6e6"></rect><rect x="407.17" y="294" width="14.47" height="26.45" style="fill:#e6e6e6"></rect><rect x="121.61" y="157.51" width="168.05" height="223.81" style="fill:#f0f0f0"></rect><rect x="125.18" y="163.12" width="133.98" height="30.3" style="fill:#e6e6e6"></rect><rect x="125.18" y="199.39" width="133.98" height="30.3" style="fill:#e6e6e6"></rect><rect x="125.18" y="235.65" width="133.98" height="30.3" style="fill:#e6e6e6"></rect><rect x="125.18" y="271.92" width="133.98" height="30.3" style="fill:#e6e6e6"></rect><rect x="125.18" y="308.19" width="133.98" height="30.3" style="fill:#e6e6e6"></rect><rect x="125.18" y="344.46" width="133.98" height="30.3" style="fill:#e6e6e6"></rect><rect x="266.04" y="157.51" width="23.62" height="223.81" style="fill:#f5f5f5"></rect><rect x="136.97" y="173.26" width="14.46" height="20.16" style="fill:#ebebeb"></rect><rect x="156.2" y="173.26" width="14.46" height="20.16" style="fill:#ebebeb"></rect><rect x="175.44" y="173.26" width="14.46" height="20.16" style="fill:#ebebeb"></rect><rect x="194.67" y="173.26" width="14.46" height="20.16" style="fill:#ebebeb"></rect><rect x="213.91" y="173.26" width="14.46" height="20.16" style="fill:#ebebeb"></rect><rect x="233.15" y="173.26" width="14.46" height="20.16" style="fill:#ebebeb"></rect><rect x="136.38" y="209.46" width="14.46" height="20.16" style="fill:#ebebeb"></rect><rect x="155.61" y="209.46" width="14.46" height="20.16" style="fill:#ebebeb"></rect><rect x="174.85" y="209.46" width="14.46" height="20.16" style="fill:#ebebeb"></rect><rect x="194.09" y="209.46" width="14.46" height="20.16" style="fill:#ebebeb"></rect><rect x="213.32" y="209.46" width="14.46" height="20.16" style="fill:#ebebeb"></rect><rect x="232.56" y="209.46" width="14.46" height="20.16" style="fill:#ebebeb"></rect><rect x="135.79" y="245.66" width="14.46" height="20.16" style="fill:#ebebeb"></rect><rect x="155.03" y="245.66" width="14.46" height="20.16" style="fill:#ebebeb"></rect><rect x="174.26" y="245.66" width="14.46" height="20.16" style="fill:#ebebeb"></rect><rect x="193.5" y="245.66" width="14.46" height="20.16" style="fill:#ebebeb"></rect><rect x="212.74" y="245.66" width="14.46" height="20.16" style="fill:#ebebeb"></rect><rect x="231.97" y="245.66" width="14.46" height="20.16" style="fill:#ebebeb"></rect><rect x="135.2" y="281.86" width="14.46" height="20.16" style="fill:#ebebeb"></rect><rect x="154.44" y="281.86" width="14.46" height="20.16" style="fill:#ebebeb"></rect><rect x="173.68" y="281.86" width="14.46" height="20.16" style="fill:#ebebeb"></rect><rect x="192.91" y="281.86" width="14.46" height="20.16" style="fill:#ebebeb"></rect><rect x="212.15" y="281.86" width="14.46" height="20.16" style="fill:#ebebeb"></rect><rect x="231.38" y="281.86" width="14.46" height="20.16" style="fill:#ebebeb"></rect><rect x="134.62" y="318.06" width="14.46" height="20.16" style="fill:#ebebeb"></rect><rect x="153.85" y="318.06" width="14.46" height="20.16" style="fill:#ebebeb"></rect><rect x="173.09" y="318.06" width="14.46" height="20.16" style="fill:#ebebeb"></rect><rect x="192.33" y="318.06" width="14.46" height="20.16" style="fill:#ebebeb"></rect><rect x="211.56" y="318.06" width="14.46" height="20.16" style="fill:#ebebeb"></rect><rect x="230.8" y="318.06" width="14.46" height="20.16" style="fill:#ebebeb"></rect><rect x="134.03" y="354.26" width="14.46" height="20.16" style="fill:#ebebeb"></rect><rect x="153.27" y="354.26" width="14.46" height="20.16" style="fill:#ebebeb"></rect><rect x="172.5" y="354.26" width="14.46" height="20.16" style="fill:#ebebeb"></rect><rect x="191.74" y="354.26" width="14.46" height="20.16" style="fill:#ebebeb"></rect><rect x="210.97" y="354.26" width="14.46" height="20.16" style="fill:#ebebeb"></rect><rect x="230.21" y="354.26" width="14.46" height="20.16" style="fill:#ebebeb"></rect><rect x="52.46" y="149.58" width="168.05" height="231.74" style="fill:#f0f0f0"></rect><rect x="56.03" y="155.39" width="133.98" height="31.37" style="fill:#e6e6e6"></rect><rect x="56.03" y="192.94" width="133.98" height="31.37" style="fill:#e6e6e6"></rect><rect x="56.03" y="230.49" width="133.98" height="31.37" style="fill:#e6e6e6"></rect><rect x="56.03" y="268.05" width="133.98" height="31.37" style="fill:#e6e6e6"></rect><rect x="56.03" y="305.6" width="133.98" height="31.37" style="fill:#e6e6e6"></rect><rect x="56.03" y="343.15" width="133.98" height="31.37" style="fill:#e6e6e6"></rect><rect x="196.89" y="149.58" width="23.62" height="231.74" style="fill:#f5f5f5"></rect><rect x="67.82" y="165.89" width="14.46" height="20.87" style="fill:#ebebeb"></rect><rect x="87.05" y="165.89" width="14.46" height="20.87" style="fill:#ebebeb"></rect><rect x="106.29" y="165.89" width="14.46" height="20.87" style="fill:#ebebeb"></rect><rect x="125.52" y="165.89" width="14.46" height="20.87" style="fill:#ebebeb"></rect><rect x="144.76" y="165.89" width="14.46" height="20.87" style="fill:#ebebeb"></rect><rect x="164" y="165.89" width="14.46" height="20.87" style="fill:#ebebeb"></rect><rect x="67.23" y="203.37" width="14.46" height="20.87" style="fill:#ebebeb"></rect><rect x="86.47" y="203.37" width="14.46" height="20.87" style="fill:#ebebeb"></rect><rect x="105.7" y="203.37" width="14.46" height="20.87" style="fill:#ebebeb"></rect><rect x="124.94" y="203.37" width="14.46" height="20.87" style="fill:#ebebeb"></rect><rect x="144.17" y="203.37" width="14.46" height="20.87" style="fill:#ebebeb"></rect><rect x="163.41" y="203.37" width="14.46" height="20.87" style="fill:#ebebeb"></rect><rect x="66.64" y="240.85" width="14.46" height="20.87" style="fill:#ebebeb"></rect><rect x="85.88" y="240.85" width="14.46" height="20.87" style="fill:#ebebeb"></rect><rect x="105.11" y="240.85" width="14.46" height="20.87" style="fill:#ebebeb"></rect><rect x="124.35" y="240.85" width="14.46" height="20.87" style="fill:#ebebeb"></rect><rect x="143.59" y="240.85" width="14.46" height="20.87" style="fill:#ebebeb"></rect><rect x="162.82" y="240.85" width="14.46" height="20.87" style="fill:#ebebeb"></rect><rect x="66.06" y="278.34" width="14.46" height="20.87" style="fill:#ebebeb"></rect><rect x="85.29" y="278.34" width="14.46" height="20.87" style="fill:#ebebeb"></rect><rect x="104.53" y="278.34" width="14.46" height="20.87" style="fill:#ebebeb"></rect><rect x="123.76" y="278.34" width="14.46" height="20.87" style="fill:#ebebeb"></rect><rect x="143" y="278.34" width="14.46" height="20.87" style="fill:#ebebeb"></rect><rect x="162.24" y="278.34" width="14.46" height="20.87" style="fill:#ebebeb"></rect><rect x="65.47" y="315.82" width="14.46" height="20.87" style="fill:#ebebeb"></rect><rect x="84.7" y="315.82" width="14.46" height="20.87" style="fill:#ebebeb"></rect><rect x="103.94" y="315.82" width="14.46" height="20.87" style="fill:#ebebeb"></rect><rect x="123.18" y="315.82" width="14.46" height="20.87" style="fill:#ebebeb"></rect><rect x="142.41" y="315.82" width="14.46" height="20.87" style="fill:#ebebeb"></rect><rect x="161.65" y="315.82" width="14.46" height="20.87" style="fill:#ebebeb"></rect><rect x="64.88" y="353.31" width="14.46" height="20.87" style="fill:#ebebeb"></rect><rect x="84.12" y="353.31" width="14.46" height="20.87" style="fill:#ebebeb"></rect><rect x="103.35" y="353.31" width="14.46" height="20.87" style="fill:#ebebeb"></rect><rect x="122.59" y="353.31" width="14.46" height="20.87" style="fill:#ebebeb"></rect><rect x="141.83" y="353.31" width="14.46" height="20.87" style="fill:#ebebeb"></rect><rect x="161.06" y="353.31" width="14.46" height="20.87" style="fill:#ebebeb"></rect><rect x="103.94" y="55.2" width="3.78" height="27.89" style="fill:#f5f5f5"></rect><rect x="198.94" y="55.2" width="3.78" height="27.89" style="fill:#f5f5f5"></rect><rect x="88.35" y="77.72" width="127.28" height="40.53" style="fill:#ebebeb"></rect><rect x="210.32" y="77.72" width="5.3" height="40.53" style="fill:#e6e6e6"></rect></g><g id="freepik--Shadow--inject-2"><ellipse id="freepik--path--inject-2" cx="250" cy="416.24" rx="193.89" ry="11.32" style="fill:#f5f5f5"></ellipse></g><g id="freepik--Plant--inject-2"><path d="M81.48,388.48s-5.65-12.33.81-24.48,8.32-15,4.21-17.5-6,9.72-6,9.72-3.46-8.4-.6-17.19,4.66-23.11.75-24.65-.75,17.86-4.14,24.48a57,57,0,0,1-3.32-14.43c-.47-7.06.26-18.33-2.83-21.22s-5.06-.89-2,14.69a162.92,162.92,0,0,1,3,28.25s-6.71-20.44-11.21-21-4.49,6-.64,11.76,11.28,16,12.5,21.32c0,0-7.36-15.38-14-10.66s5.76,14,11.28,17.36,9.35,24.4,9.35,24.4Z" style="fill:#C53F3F"></path><path d="M81.48,388.48s-5.65-12.33.81-24.48,8.32-15,4.21-17.5-6,9.72-6,9.72-3.46-8.4-.6-17.19,4.66-23.11.75-24.65-.75,17.86-4.14,24.48a57,57,0,0,1-3.32-14.43c-.47-7.06.26-18.33-2.83-21.22s-5.06-.89-2,14.69a162.92,162.92,0,0,1,3,28.25s-6.71-20.44-11.21-21-4.49,6-.64,11.76,11.28,16,12.5,21.32c0,0-7.36-15.38-14-10.66s5.76,14,11.28,17.36,9.35,24.4,9.35,24.4Z" style="fill:#fff;opacity:0.6000000000000001;isolation:isolate"></path><path d="M77,393.53s5.5-12.41-1.1-24.46-8.5-14.89-4.42-17.44,6.12,9.63,6.12,9.63,3.37-8.45.4-17.2-4.94-23-1-24.63,1,17.85,4.44,24.41a56.94,56.94,0,0,0,3.14-14.47c.39-7.07-.48-18.33,2.57-21.27s5.06-1,2.21,14.66a162.68,162.68,0,0,0-2.67,28.29s6.46-20.53,11-21.2,4.56,6,.78,11.76-11.08,16.19-12.24,21.5c0,0,7.17-15.49,13.85-10.88s-5.59,14.09-11.07,17.53-9.06,24.54-9.06,24.54Z" style="fill:#C53F3F"></path><path d="M77,393.53s5.5-12.41-1.1-24.46-8.5-14.89-4.42-17.44,6.12,9.63,6.12,9.63,3.37-8.45.4-17.2-4.94-23-1-24.63,1,17.85,4.44,24.41a56.94,56.94,0,0,0,3.14-14.47c.39-7.07-.48-18.33,2.57-21.27s5.06-1,2.21,14.66a162.68,162.68,0,0,0-2.67,28.29s6.46-20.53,11-21.2,4.56,6,.78,11.76-11.08,16.19-12.24,21.5c0,0,7.17-15.49,13.85-10.88s-5.59,14.09-11.07,17.53-9.06,24.54-9.06,24.54Z" style="fill:#fff;opacity:0.7000000000000001;isolation:isolate"></path><polygon points="102.39 384.68 56.95 384.68 60.63 417.2 98.72 417.2 102.39 384.68" style="fill:#C53F3F"></polygon></g><g id="freepik--character-2--inject-2"><polygon points="259.51 239.62 194.85 239.62 194.85 191.54 235.51 191.54 239.2 211.49 259.51 219.73 259.51 239.62" style="fill:#263238"></polygon><polygon points="259.51 239.62 194.85 239.62 194.85 191.54 235.51 191.54 239.2 211.49 259.51 219.73 259.51 239.62" style="fill:#fff;opacity:0.1;isolation:isolate"></polygon><polygon points="229.51 239.62 192.85 239.62 192.85 191.54 205.51 191.54 209.2 211.49 229.51 219.73 229.51 239.62" style="fill:#fff;opacity:0.1;isolation:isolate"></polygon><polygon points="234.27 200.71 233.18 194.8 209.82 194.8 210.91 200.71 234.27 200.71" style="opacity:0.2;isolation:isolate"></polygon><polygon points="211.4 203.35 212.18 207.57 235.54 207.57 234.76 203.35 211.4 203.35" style="opacity:0.2;isolation:isolate"></polygon><polygon points="209.2 211.49 239.2 211.49 259.51 219.73 229.51 219.73 209.2 211.49" style="fill:#fff;opacity:0.30000000000000004;isolation:isolate"></polygon><g id="freepik--group--inject-2"><path d="M307.89,155.72c6.32,3.22,4.51,18.72-11.65,47.66l-11.07-9a163.7,163.7,0,0,1,10.16-26.16C301.88,155.16,307.89,155.72,307.89,155.72Z" style="fill:#C53F3F"></path><path d="M307.89,155.72c6.32,3.22,4.51,18.72-11.65,47.66l-11.07-9a163.7,163.7,0,0,1,10.16-26.16C301.88,155.16,307.89,155.72,307.89,155.72Z" style="fill:#fff;opacity:0.4;isolation:isolate"></path><path d="M362.17,225.38h-43c-4.09,22.35-16.9,101.42-7.71,171.87L326,395.44s-1.35-93.53,11.52-128.1c1.48,18.5,3.23,38.19,4.76,48.67C346,341.79,354,398.15,354,398.15h14.83s-3-53.94-4.44-79.29C362.89,291.35,362.23,231,362.17,225.38Z" style="fill:#263238"></path><path d="M304.81,155.94c4.45-1,27.92-6.26,46.86-5.52,0,0,6.09,62.41,11.8,87.78l-49.53,8.68s-11.12-62.1-9.91-90A1,1,0,0,1,304.81,155.94Z" style="fill:#C53F3F"></path><path d="M304.81,155.94c4.45-1,27.92-6.26,46.86-5.52,0,0,6.09,62.41,11.8,87.78l-49.53,8.68s-11.12-62.1-9.91-90A1,1,0,0,1,304.81,155.94Z" style="fill:#fff;opacity:0.6000000000000001;isolation:isolate"></path><path d="M347.25,149.58s-5.67,23.84,9.83,44.09l3.83,25.43,4.45,21.06-24.64,6.5-8.83-19.77L331,248.72l-19.61,2.86-2.13-25S305.87,206.84,305,196c0,0-2.94-25.12,1.64-41.14l6.45-1.39s.36,15.31,10.16,27.59c0,0,9.3-24.51,17.74-31.45Z" style="fill:#C53F3F"></path><path d="M347.25,149.58s-5.67,23.84,9.83,44.09l3.83,25.43,4.45,21.06-24.64,6.5-8.83-19.77L331,248.72l-19.61,2.86-2.13-25S305.87,206.84,305,196c0,0-2.94-25.12,1.64-41.14l6.45-1.39s.36,15.31,10.16,27.59c0,0,9.3-24.51,17.74-31.45Z" style="opacity:0.2;isolation:isolate"></path><path d="M287.28,189.72s-2.94,8.05-5.19,8.31-16.88-24.28-16.88-24.28-1.68-4.87-4.45-6.19-11-6-13.12-4.94-1,9.16-1,11c0,1.62,7,4,9.1,4.4a7.08,7.08,0,0,0,4.06-.36s11.73,28.88,19.34,33.94,19.07-12.15,19.07-12.15Z" style="fill:#ebb376"></path><polygon points="283.27 193.82 285.35 192.15 298 202.85 295.97 206.48 283.27 193.82" style="fill:#C53F3F"></polygon><polygon points="283.27 193.82 285.35 192.15 298 202.85 295.97 206.48 283.27 193.82" style="fill:#fff;opacity:0.30000000000000004;isolation:isolate"></polygon><polygon points="324.42 409.52 316.06 410.4 314.49 392.36 322.85 391.47 324.42 409.52" style="fill:#ebb376"></polygon><polygon points="366.18 408.91 358.07 408.91 357.4 390.13 365.51 390.13 366.18 408.91" style="fill:#ebb376"></polygon><path d="M356.94,408h9.85a.73.73,0,0,1,.7.56l1.59,7.22a1.19,1.19,0,0,1-.92,1.42,1.14,1.14,0,0,1-.26,0c-3.19-.05-5.51-.24-9.51-.24-2.47,0-9.9.25-13.31.25s-3.84-3.36-2.45-3.67c6.25-1.36,10.95-3.25,12.95-5A2,2,0,0,1,356.94,408Z" style="fill:#263238"></path><path d="M354.26,409.4a2.43,2.43,0,0,1-1.55-.42,1.13,1.13,0,0,1-.41-1,.58.58,0,0,1,.33-.53c.9-.47,3.52,1.14,3.81,1.33a.17.17,0,0,1,.09.18.21.21,0,0,1-.14.17A10.93,10.93,0,0,1,354.26,409.4Zm-1.2-1.69a.51.51,0,0,0-.25.06c-.05,0-.12.07-.13.22a.81.81,0,0,0,.26.69,3.91,3.91,0,0,0,2.89.15A8,8,0,0,0,353.06,407.71Z" style="fill:#C53F3F"></path><path d="M356.34,409.11h-.1c-.83-.46-2.45-2.24-2.29-3.1a.63.63,0,0,1,.62-.5,1.06,1.06,0,0,1,.82.24c.94.77,1.13,3.1,1.14,3.21a.21.21,0,0,1-.09.18A.17.17,0,0,1,356.34,409.11Zm-1.63-3.29h-.1c-.24,0-.26.14-.28.19-.1.53.93,1.88,1.77,2.51a4.62,4.62,0,0,0-1-2.54A.67.67,0,0,0,354.71,405.82Z" style="fill:#C53F3F"></path><path d="M315.17,407.71H325a.73.73,0,0,1,.69.56l1.6,7.22a1.2,1.2,0,0,1-.92,1.42l-.26,0c-3.19-.06-5.51-.25-9.51-.25-2.47,0-9.91.26-13.31.26s-3.85-3.37-2.45-3.68c6.25-1.36,10.95-3.25,12.95-5A2,2,0,0,1,315.17,407.71Z" style="fill:#263238"></path><path d="M312.49,409.14a2.47,2.47,0,0,1-1.56-.41,1.18,1.18,0,0,1-.4-1,.57.57,0,0,1,.33-.53c.9-.47,3.52,1.14,3.81,1.33a.18.18,0,0,1,.09.18.2.2,0,0,1-.15.17A9.43,9.43,0,0,1,312.49,409.14Zm-1.21-1.68a.4.4,0,0,0-.24.05c-.06,0-.12.07-.13.23a.83.83,0,0,0,.26.69,4,4,0,0,0,2.89.14A8,8,0,0,0,311.28,407.46Z" style="fill:#C53F3F"></path><path d="M314.56,408.85h-.09c-.84-.45-2.45-2.24-2.29-3.1a.63.63,0,0,1,.62-.5,1,1,0,0,1,.81.25c.94.76,1.14,3.09,1.15,3.2a.23.23,0,0,1-.09.18A.2.2,0,0,1,314.56,408.85Zm-1.63-3.29h-.09c-.25,0-.27.14-.28.19-.1.53.93,1.88,1.77,2.51a4.62,4.62,0,0,0-1-2.54A.7.7,0,0,0,312.93,405.56Z" style="fill:#C53F3F"></path><polygon points="322.85 391.47 314.49 392.36 315.3 401.67 323.67 400.78 322.85 391.47" style="opacity:0.2;isolation:isolate"></polygon><polygon points="365.51 390.14 357.4 390.14 357.75 399.82 365.87 399.82 365.51 390.14" style="opacity:0.2;isolation:isolate"></polygon><polygon points="309.76 400.64 327.79 397.96 327.24 392.96 308.48 395.43 309.76 400.64" style="fill:#C53F3F"></polygon><polygon points="309.76 400.64 327.79 397.96 327.24 392.96 308.48 395.43 309.76 400.64" style="fill:#fff;opacity:0.6000000000000001;isolation:isolate"></polygon><polygon points="352.24 398.27 369.73 398.27 369.73 393.04 351.58 392.7 352.24 398.27" style="fill:#C53F3F"></polygon><polygon points="352.24 398.27 369.73 398.27 369.73 393.04 351.58 392.7 352.24 398.27" style="fill:#fff;opacity:0.6000000000000001;isolation:isolate"></polygon><path d="M337.5,267.34A115.2,115.2,0,0,0,332.7,286c-1.21-16.47,3.61-33.93,3.61-33.93Z" style="opacity:0.2;isolation:isolate"></path><path d="M335.87,150.94c-3.12,4.32-12.87,5-12.87,5s-6.25-.37-5.4-2.48c3.36-1.31,4.7-3.29,5-5.52a10.27,10.27,0,0,0-.49-4.05,19.83,19.83,0,0,0-.76-2.16l9.87-11.14C330.86,136.67,331.21,147.59,335.87,150.94Z" style="fill:#ebb376"></path><path d="M329.64,136.7c1,7.12-4.34,10.28-7.08,11.27a10.27,10.27,0,0,0-.49-4.05Z" style="opacity:0.2;isolation:isolate"></path><path d="M309.82,114.11s-2.44,11,3.19,15.73,7-16.07,7-16.07Z" style="fill:#263238"></path><path d="M329.59,139.86A10.15,10.15,0,0,1,317.7,143a11.29,11.29,0,0,1-6.07-5.67,9.25,9.25,0,0,1-.47-1.11c-2.45-7-2.57-19,4.93-23a11,11,0,0,1,16.2,9.39C332.64,130.66,333.22,135.37,329.59,139.86Z" style="fill:#ebb376"></path><path d="M320.39,126.11c.11.64-.22,1.21-.65,1.26s-.82-.46-.89-1.11.23-1.21.65-1.25S320.32,125.45,320.39,126.11Z" style="fill:#263238"></path><path d="M313,126.86c.11.64-.23,1.21-.66,1.26s-.82-.46-.89-1.1.23-1.22.65-1.26S313,126.25,313,126.86Z" style="fill:#263238"></path><path d="M315.41,126.94a23.85,23.85,0,0,1-2.54,5.89,3.77,3.77,0,0,0,3.18.26Z" style="fill:#d58745"></path><path d="M322.43,123.5a.43.43,0,0,1-.39-.11,3.07,3.07,0,0,0-2.57-1,.39.39,0,0,1-.13-.76h0a3.83,3.83,0,0,1,3.26,1.26.38.38,0,0,1,0,.54h0A.51.51,0,0,1,322.43,123.5Z" style="fill:#263238"></path><path d="M309.62,124.65a.37.37,0,0,1-.23,0,.38.38,0,0,1-.23-.49h0a3.8,3.8,0,0,1,2.53-2.42.38.38,0,0,1,.46.28h0a.39.39,0,0,1-.29.46h0a3.08,3.08,0,0,0-2,2A.42.42,0,0,1,309.62,124.65Z" style="fill:#263238"></path><path d="M325.41,113.27l-.24,3.56a2.64,2.64,0,0,1,1.5,3.25c-1,3,1,7.55,3.34,9.27,0,0,0-1.3,1.1-1s1.17,7-.78,10.29c0,0,3.05-3.07,4.48-10.21,1.33-6.6,1.24-12-.24-14.49Z" style="fill:#263238"></path><path d="M336.45,128.83a7.61,7.61,0,0,1-4,4.29c-2.44,1.11-4.07-1-3.73-3.5.31-2.23,1.94-5.57,4.56-5.6S337.28,126.49,336.45,128.83Z" style="fill:#ebb376"></path><path d="M325.17,116.83a23.47,23.47,0,0,0-8.16.8,13.34,13.34,0,0,1-7.11.29s-3.56-7.2,1.15-11.56,12.59-2.66,15.14-1.18-2.63,1.23-2.63,1.23,8.34,1.55,11.95,4.72,2.74,8.39,2,9.27-1.4-1.06-1.4-1.06a9.57,9.57,0,0,1-5,1C328,120.3,329.3,117.55,325.17,116.83Z" style="fill:#263238"></path><path d="M316.53,135.71a21,21,0,0,1,1.44,2.77,4.58,4.58,0,0,0,.53-.14c2.42-.62,3.33-1.71,3.61-2.73a3.25,3.25,0,0,0,0-1.52,3,3,0,0,0-.29-.82,11.87,11.87,0,0,1-4.48,2.21Z" style="fill:#263238"></path><path d="M317.35,135.48l.45.81c2.27-.6,3.79-1.33,4.32-2.2a3,3,0,0,0-.29-.82A11.87,11.87,0,0,1,317.35,135.48Z" style="fill:#fff"></path><path d="M318.5,138.34c2.42-.62,3.33-1.71,3.61-2.73a7.94,7.94,0,0,0-2.54,1.23A3,3,0,0,0,318.5,138.34Z" style="fill:#de5753"></path><path d="M333.39,147.77a27.17,27.17,0,0,1-9.27,7.58,12,12,0,0,1-2.28-5.14,20.92,20.92,0,0,0-5.32,3.62,14.56,14.56,0,0,0,2.36,6.54l5.07-3.63,6.15,4.49s8.08-5.22,9.89-10.58Z" style="fill:#C53F3F"></path><path d="M333.39,147.77a27.17,27.17,0,0,1-9.27,7.58,12,12,0,0,1-2.28-5.14,20.92,20.92,0,0,0-5.32,3.62,14.56,14.56,0,0,0,2.36,6.54l5.07-3.63,6.15,4.49s8.08-5.22,9.89-10.58Z" style="fill:#fff;opacity:0.4;isolation:isolate"></path><path d="M269.56,188.43c-6.82-.5-5.93,5.14-4.71,9.18l5.3,12,10.78-.39S276.38,188.92,269.56,188.43Zm-.49,14.06c-1.58-2.6-6.14-10.7-1.29-12.09s10.58,9.4,9.2,13.55S272.2,207.64,269.07,202.49Z" style="fill:#C53F3F"></path><path d="M269.56,188.43c-6.82-.5-5.93,5.14-4.71,9.18l5.3,12,10.78-.39S276.38,188.92,269.56,188.43Zm-.49,14.06c-1.58-2.6-6.14-10.7-1.29-12.09s10.58,9.4,9.2,13.55S272.2,207.64,269.07,202.49Z" style="fill:#fff;opacity:0.5;isolation:isolate"></path><polygon points="267.58 208.9 270.94 196.45 287.26 200.58 283.09 221.16 267.58 208.9" style="fill:#C53F3F"></polygon><polygon points="285.78 218.79 281.82 193.88 291.71 189.42 299.5 193.88 300.32 219.98 285.78 218.79" style="fill:#C53F3F"></polygon><polygon points="285.78 218.79 281.82 193.88 291.71 189.42 299.5 193.88 300.32 219.98 285.78 218.79" style="opacity:0.2;isolation:isolate"></polygon><path d="M292.9,211.37s5.44-34,9.4-35.11,7.61,4.16,7.61,4.16-3.37,22.15-5.84,30S292.9,211.37,292.9,211.37Z" style="fill:#C53F3F"></path><path d="M292.9,211.37s5.44-34,9.4-35.11,7.61,4.16,7.61,4.16-3.37,22.15-5.84,30S292.9,211.37,292.9,211.37Z" style="fill:#fff;opacity:0.8;isolation:isolate"></path><path d="M306.25,212.53c0-5,6.6-19-1.61-20.38s-14.74,13.52-24,13.49-15.82-8-15.82-8l1.42,2.95s-17.85,34.93-9.34,38.4c7.92,3.22,52.37,0,52.37,0C315.77,234.53,306.25,217.54,306.25,212.53Zm-1-5.17c-1,.25-5.73-4.87-5.73-4.87-.4-9.28,4.65-9.91,7.12-7.24S306.25,207.12,305.26,207.36Z" style="fill:#C53F3F"></path><path d="M306.25,212.53c0-5,6.6-19-1.61-20.38s-14.74,13.52-24,13.49-15.82-8-15.82-8l1.42,2.95s-17.85,34.93-9.34,38.4c7.92,3.22,52.37,0,52.37,0C315.77,234.53,306.25,217.54,306.25,212.53Zm-1-5.17c-1,.25-5.73-4.87-5.73-4.87-.4-9.28,4.65-9.91,7.12-7.24S306.25,207.12,305.26,207.36Z" style="fill:#fff;opacity:0.7000000000000001;isolation:isolate"></path><rect x="330.78" y="183.38" width="10.08" height="6.9" transform="translate(-18.04 36.94) rotate(-6.13)" style="fill:#fff;opacity:0.6000000000000001;isolation:isolate"></rect><path d="M333.7,180.22l1,3.31a.88.88,0,0,0,1,.62h0a.9.9,0,0,0,.75-.76l.53-3.84Z" style="fill:#C53F3F"></path><path d="M333.7,180.22l1,3.31a.88.88,0,0,0,1,.62h0a.9.9,0,0,0,.75-.76l.53-3.84Z" style="opacity:0.4;isolation:isolate"></path><path d="M341.07,189.66s-3.72,11.17-5.32,13.6-42.85,13.1-42.85,13.1-3.46-1.76-5.64-1.57-10.68,2.17-10.88,3.75,4.36,8.7,5.44,9.29,12-1.05,13.16-3.89c0,0,42.13-7.56,46.09-9.15s12.45-20.38,12.45-20.38Z" style="fill:#ebb376"></path><path d="M351.67,150.42c6.38.43,11.95,14.17,10.86,25.25s-11.28,30-11.28,30l-14.24-7S340.57,186,344.63,174,346.85,150.09,351.67,150.42Z" style="fill:#C53F3F"></path><path d="M351.67,150.42c6.38.43,11.95,14.17,10.86,25.25s-11.28,30-11.28,30l-14.24-7S340.57,186,344.63,174,346.85,150.09,351.67,150.42Z" style="fill:#fff;opacity:0.4;isolation:isolate"></path><polygon points="335.31 199.92 336.89 197.61 353.52 203.23 352.66 207.36 335.31 199.92" style="fill:#C53F3F"></polygon><polygon points="335.31 199.92 336.89 197.61 353.52 203.23 352.66 207.36 335.31 199.92" style="fill:#fff;opacity:0.30000000000000004;isolation:isolate"></polygon></g><path d="M204,222.07h29.26a1.79,1.79,0,0,1,1.79,1.79v16.46a0,0,0,0,1,0,0H202.21a0,0,0,0,1,0,0V223.85A1.79,1.79,0,0,1,204,222.07Z" style="fill:#C53F3F"></path><path d="M235,223.85v16.46H202.21V223.85a1.78,1.78,0,0,1,1.78-1.78h29.27A1.78,1.78,0,0,1,235,223.85Z" style="fill:#fff;opacity:0.30000000000000004;isolation:isolate"></path><path d="M227,223.85v16.46H202.21V223.85a1.78,1.78,0,0,1,1.78-1.78h21.27A1.78,1.78,0,0,1,227,223.85Z" style="fill:#fff;opacity:0.4;isolation:isolate"></path><rect x="181.36" y="245.21" width="228.92" height="171.99" style="fill:#C53F3F"></rect><rect x="181.36" y="245.21" width="228.92" height="171.99" style="fill:#fff;opacity:0.30000000000000004;isolation:isolate"></rect><rect x="181.36" y="245.21" width="169.52" height="171.99" style="fill:#fff;opacity:0.4;isolation:isolate"></rect><rect x="178.95" y="238.88" width="234.64" height="9.95" rx="1.56" style="fill:#C53F3F"></rect><rect x="178.95" y="238.88" width="174.64" height="9.95" rx="1.56" style="fill:#fff;opacity:0.2;isolation:isolate"></rect></g><g id="freepik--trash-bin--inject-2"><path d="M442.83,392.41a3,3,0,0,0-2.39-4.27,6.36,6.36,0,0,0-2-7,1.47,1.47,0,0,0-.87-.39,1.76,1.76,0,0,0-.95.41l-5.57,4a3.31,3.31,0,0,0-1.11,1.09c-1.14,2.21,3,5,1.28,6.86-.48.52-1.26.63-1.87,1-1.33.83-1.49,2.65-2.1,4.09s-2.78,2.55-3.6,1.22c.61-1.38-1.24-2.56-2.73-2.74s-3.06-.26-3.89-1.66c-2.13,1.85-6.88-3.32-6.77-5.41-1.75.13-2.94,1.77-3.32,3.4a24.41,24.41,0,0,0-.18,5.2c-.05,3.39-1.14,6.7-1.08,10.08,0,2.63,1.06,5.55,3.47,6.61a9,9,0,0,0,3.73.5l27.43-.17a4.32,4.32,0,0,0,1.93-.32c1.24-.65,1.5-2.28,1.62-3.67l1.47-17.87Z" style="fill:#C53F3F"></path><path d="M442.83,392.41a3,3,0,0,0-2.39-4.27,6.36,6.36,0,0,0-2-7,1.47,1.47,0,0,0-.87-.39,1.76,1.76,0,0,0-.95.41l-5.57,4a3.31,3.31,0,0,0-1.11,1.09c-1.14,2.21,3,5,1.28,6.86-.48.52-1.26.63-1.87,1-1.33.83-1.49,2.65-2.1,4.09s-2.78,2.55-3.6,1.22c.61-1.38-1.24-2.56-2.73-2.74s-3.06-.26-3.89-1.66c-2.13,1.85-6.88-3.32-6.77-5.41-1.75.13-2.94,1.77-3.32,3.4a24.41,24.41,0,0,0-.18,5.2c-.05,3.39-1.14,6.7-1.08,10.08,0,2.63,1.06,5.55,3.47,6.61a9,9,0,0,0,3.73.5l27.43-.17a4.32,4.32,0,0,0,1.93-.32c1.24-.65,1.5-2.28,1.62-3.67l1.47-17.87Z" style="fill:#fff;opacity:0.30000000000000004;isolation:isolate"></path><path d="M444.43,363.42H401.87l.35,4.3.25,3.07.65,8,.37,4.59.49,6.11.21,2.62.07.78.25,3.08.34,4.22.21,2.62.22,2.66.25,3.08.19,2.33.21,2.62.09,1.14h39.06l.09-1.14.21-2.61.19-2.35.25-3.08.22-2.65.21-2.62.34-4.23.25-3.07.06-.78.21-2.62.5-6.11.37-4.58.64-8,.25-3.07.35-4.3Zm2.56,2.82h0l-.82-.82h.89Zm-.21,2.61-.08,1-3.81,3.81-4.37-4.37,3.91-3.91h.92Zm-1.1,13.62-2.79,2.79-4.37-4.37,4.37-4.36,3,3Zm-40.5-2.92h0l3-3,4.37,4.36-4.37,4.37-2.78-2.79Zm36.3-4.44-4.37,4.37-4.37-4.37,4.37-4.37Zm-6.87-9.69h5l-2.5,2.5Zm1.08,15.47-4.36,4.37L427,380.89l4.37-4.36Zm-14.51,5.78,4.37-4.36,4.36,4.36L425.55,391Zm2.95,5.78-4.37,4.37-4.36-4.36,4.37-4.37Zm7.2-4.36,4.36,4.37-4.36,4.36L427,392.45Zm-5.78-8.61-4.37-4.37,4.37-4.37,4.36,4.37Zm-1.42,1.41-4.36,4.37-4.37-4.37,4.37-4.36ZM414,379.48l-4.36-4.37,4.36-4.37,4.37,4.37Zm0,2.83,4.37,4.36L414,391l-4.36-4.37Zm4.37,15.93L414,402.6l-4.36-4.36,4.36-4.37Zm1.41,1.41,4.37,4.37-4.36,4.37L415.4,404Zm1.42-1.41,4.37-4.37,4.36,4.37-4.36,4.36Zm10.15,1.41,4.36,4.37-4.36,4.37L427,404Zm5.78,5.78,4.37,4.37-2.83,2.83h-3.08l-2.83-2.83Zm-4.37-7.19,4.37-4.37,4.37,4.37-4.37,4.36Zm0-11.57,4.37-4.36,4.37,4.36L437.11,391Zm2.95-17.34-4.36,4.37L427,369.33l3.91-3.91h.92Zm-10.14-1.41-2.5-2.5h5Zm-1.42,1.41-4.36,4.37-4.37-4.37,3.91-3.91h.92Zm-7.65-3.91-2.5,2.5-2.49-2.5Zm-7.82,0,3.91,3.91-4.37,4.37-3.8-3.81-.08-1,3.42-3.43Zm-3.74,0-.81.81h0l-.07-.81Zm-.27,7.55,2.14,2.14L405,376.93Zm1.19,14.65-.17-2.07h0l1.12,1.12-1,.95Zm.21,2.63,2.15-2.16,4.37,4.37-4.37,4.36-1.76-1.76Zm.65,8.08v-.19l.1.1-.09.09Zm.76,9.31-.55-6.7,1.29-1.29,4.37,4.37-4.37,4.36-.74-.74Zm.4,5-.08-1,.42-.42,1.42,1.42Zm1.76-2.83,4.36-4.37,4.37,4.37-2.83,2.83h-3.08Zm8.73,2.83,1.42-1.42,1.42,1.42Zm5.66,0-2.83-2.83,4.37-4.37,4.36,4.37-2.82,2.83Zm5.9,0,1.42-1.42,1.42,1.42Zm13.32,0h-1.76l1.42-1.42.42.42Zm.41-5-.75.74L438.52,404l4.37-4.37,1.29,1.29Zm.77-9.51,0,.2-.09-.09.11-.11Zm.25-3.07-1.77,1.76-4.37-4.36,4.37-4.37,2.16,2.16Zm.6-7.43-1-1,1.13-1.12ZM446.45,373l-.32,4-1.83-1.83,2.15-2.15Z" style="fill:#C53F3F"></path><g style="opacity:0.6000000000000001;isolation:isolate"><path d="M444.43,363.42H401.87l.35,4.3.25,3.07.65,8,.37,4.59.49,6.11.21,2.62.07.78.25,3.08.34,4.22.21,2.62.22,2.66.25,3.08.19,2.33.21,2.62.09,1.14h39.06l.09-1.14.21-2.61.19-2.35.25-3.08.22-2.65.21-2.62.34-4.23.25-3.07.06-.78.21-2.62.5-6.11.37-4.58.64-8,.25-3.07.35-4.3Zm2.56,2.82h0l-.82-.82h.89Zm-.21,2.61-.08,1-3.81,3.81-4.37-4.37,3.91-3.91h.92Zm-1.1,13.62-2.79,2.79-4.37-4.37,4.37-4.36,3,3Zm-40.5-2.92h0l3-3,4.37,4.36-4.37,4.37-2.78-2.79Zm36.3-4.44-4.37,4.37-4.37-4.37,4.37-4.37Zm-6.87-9.69h5l-2.5,2.5Zm1.08,15.47-4.36,4.37L427,380.89l4.37-4.36Zm-14.51,5.78,4.37-4.36,4.36,4.36L425.55,391Zm2.95,5.78-4.37,4.37-4.36-4.36,4.37-4.37Zm7.2-4.36,4.36,4.37-4.36,4.36L427,392.45Zm-5.78-8.61-4.37-4.37,4.37-4.37,4.36,4.37Zm-1.42,1.41-4.36,4.37-4.37-4.37,4.37-4.36ZM414,379.48l-4.36-4.37,4.36-4.37,4.37,4.37Zm0,2.83,4.37,4.36L414,391l-4.36-4.37Zm4.37,15.93L414,402.6l-4.36-4.36,4.36-4.37Zm1.41,1.41,4.37,4.37-4.36,4.37L415.4,404Zm1.42-1.41,4.37-4.37,4.36,4.37-4.36,4.36Zm10.15,1.41,4.36,4.37-4.36,4.37L427,404Zm5.78,5.78,4.37,4.37-2.83,2.83h-3.08l-2.83-2.83Zm-4.37-7.19,4.37-4.37,4.37,4.37-4.37,4.36Zm0-11.57,4.37-4.36,4.37,4.36L437.11,391Zm2.95-17.34-4.36,4.37L427,369.33l3.91-3.91h.92Zm-10.14-1.41-2.5-2.5h5Zm-1.42,1.41-4.36,4.37-4.37-4.37,3.91-3.91h.92Zm-7.65-3.91-2.5,2.5-2.49-2.5Zm-7.82,0,3.91,3.91-4.37,4.37-3.8-3.81-.08-1,3.42-3.43Zm-3.74,0-.81.81h0l-.07-.81Zm-.27,7.55,2.14,2.14L405,376.93Zm1.19,14.65-.17-2.07h0l1.12,1.12-1,.95Zm.21,2.63,2.15-2.16,4.37,4.37-4.37,4.36-1.76-1.76Zm.65,8.08v-.19l.1.1-.09.09Zm.76,9.31-.55-6.7,1.29-1.29,4.37,4.37-4.37,4.36-.74-.74Zm.4,5-.08-1,.42-.42,1.42,1.42Zm1.76-2.83,4.36-4.37,4.37,4.37-2.83,2.83h-3.08Zm8.73,2.83,1.42-1.42,1.42,1.42Zm5.66,0-2.83-2.83,4.37-4.37,4.36,4.37-2.82,2.83Zm5.9,0,1.42-1.42,1.42,1.42Zm13.32,0h-1.76l1.42-1.42.42.42Zm.41-5-.75.74L438.52,404l4.37-4.37,1.29,1.29Zm.77-9.51,0,.2-.09-.09.11-.11Zm.25-3.07-1.77,1.76-4.37-4.36,4.37-4.37,2.16,2.16Zm.6-7.43-1-1,1.13-1.12ZM446.45,373l-.32,4-1.83-1.83,2.15-2.15Z" style="fill:#fff"></path></g><rect x="399.14" y="361.64" width="52.8" height="5.57" rx="1.64" transform="translate(851.09 728.84) rotate(180)" style="fill:#C53F3F"></rect><rect x="402.95" y="411.64" width="45.19" height="5.57" rx="1.64" style="fill:#C53F3F"></rect></g><g id="freepik--character-1--inject-2"><path d="M177.66,210.13c3.45,1.08,4,21.13,4,21.13h-2s1-21.25-4.15-20.59Z" style="fill:#263238"></path><path d="M177.66,210.13c3.45,1.08,4,21.13,4,21.13h-2s1-21.25-4.15-20.59Z" style="opacity:0.2;isolation:isolate"></path><polygon points="182.01 399.82 175.7 400.93 173.11 392.33 170.75 384.44 178.03 381.9 180.14 391.39 182.01 399.82" style="fill:#e4897b"></polygon><polygon points="180.17 391.58 173.14 392.51 170.77 384.53 178.03 381.94 180.17 391.58" style="opacity:0.2;isolation:isolate"></polygon><polygon points="139.9 402.73 133.49 402.73 132.44 393.7 131.49 385.47 139.09 384.21 139.52 394.01 139.9 402.73" style="fill:#e4897b"></polygon><polygon points="139.52 394.09 132.44 393.78 131.49 385.51 139.09 384.23 139.52 394.09" style="opacity:0.2;isolation:isolate"></polygon><path d="M148.58,415.41a11,11,0,0,0-3.42-1.86h0s-3.72-3.69-5.51-14.8l-4.87-1.27a4.17,4.17,0,0,0-4.43,1.73,2.36,2.36,0,0,0-.31.64,27.78,27.78,0,0,0-.52,3.61c-.49,3.76-.07,12.2-.07,12.2h.88l.35-7.66c.13-2.6,2.12.45,2.69,3.25s1.78,5.78,7.48,5.92C147.5,417.3,150.26,417,148.58,415.41Z" style="fill:#263238"></path><path d="M191.08,414.66a11,11,0,0,0-3.42-1.86h0s-3.72-3.69-5.51-14.8l-4.87-1.27a4.17,4.17,0,0,0-4.43,1.73,2.36,2.36,0,0,0-.31.64,27.78,27.78,0,0,0-.52,3.61c-.49,3.76-.07,12.2-.07,12.2h.88l.35-7.66c.13-2.6,2.12.45,2.69,3.25s1.78,5.78,7.48,5.92C190,416.55,192.76,416.29,191.08,414.66Z" style="fill:#263238"></path><path d="M180.77,386.58,170.4,388.4c-10.47-26.07-17.91-47.83-23.17-65.89-2.83-9.74-5.19-18.4-6.88-26.09l.31,28.38v63.93H130.44c-25.61-122-7.46-149.81-7.46-149.81l30.65-5.1A140.43,140.43,0,0,1,156.19,251l1.38,10.16,12,61.88Z" style="fill:#C53F3F"></path><g style="opacity:0.4;isolation:isolate"><path d="M180.77,386.58,170.4,388.4c-10.47-26.07-17.91-47.83-23.17-65.89-2.83-9.74-5.19-18.4-6.88-26.09l.31,28.38v63.93H130.44c-25.61-122-7.46-149.81-7.46-149.81l30.65-5.1A140.43,140.43,0,0,1,156.19,251l1.38,10.16,12,61.88Z" style="fill:#fff"></path></g><path d="M189.91,203.7l10.34-10.22s.36-2.74,1.36-3.5,8.1-3.34,9-2.77,2.07,6.31.86,7.36-7.67,2.39-8.33,2.28l-11.19,13.28Z" style="fill:#eec1bb"></path><path d="M152.87,185.07c4.46,2.37,20.29,24.5,22.63,25.6s20.16-13.36,20.16-13.36l3,5.13S184,223.11,175.77,222.11s-24.11-18.5-24.11-18.5Z" style="fill:#263238"></path><path d="M152.87,185.07c4.46,2.37,20.29,24.5,22.63,25.6s20.16-13.36,20.16-13.36l3,5.13S184,223.11,175.77,222.11s-24.11-18.5-24.11-18.5Z" style="fill:#fff;opacity:0.4;isolation:isolate"></path><polygon points="194.68 197.86 195.91 196.69 199.16 202.19 198 204.44 194.68 197.86" style="fill:#C53F3F"></polygon><path d="M158,210.07c-3.7-3.53-6.36-6.46-6.36-6.46l.28-4.4,1.39-4.27A17.55,17.55,0,0,1,158,210.07Z" style="opacity:0.2;isolation:isolate"></path><path d="M147.23,322.51c-2.83-9.74-5-18.4-6.73-26.09a240.2,240.2,0,0,1,2-27.22S147,304.3,147.23,322.51Z" style="opacity:0.2;isolation:isolate"></path><path d="M154.36,231.93c1.25-22,.7-34.12.13-40.17-.63-6.45-1.62-6.69-1.62-6.69s-7-.68-13.07-.63a98.46,98.46,0,0,0-14,1.48,93.62,93.62,0,0,0-13,3.13q1.06,3,1.95,5.76c.8,2.38,1.51,4.6,2.15,6.66,1.21,3.87,2.14,7.21,2.89,10.2a111.59,111.59,0,0,1,3.33,23s-7.7,20.1-9.2,34.85l25.5,2.75,3.5-14.75,3.5,15.25,14.25-5Z" style="fill:#263238"></path><path d="M154.36,231.93c1.25-22,.7-34.12.13-40.17-.63-6.45-1.62-6.69-1.62-6.69s-7-.68-13.07-.63a98.46,98.46,0,0,0-14,1.48,93.62,93.62,0,0,0-13,3.13q1.06,3,1.95,5.76c.8,2.38,1.51,4.6,2.15,6.66,1.21,3.87,2.14,7.21,2.89,10.2a111.59,111.59,0,0,1,3.33,23s-7.7,20.1-9.2,34.85l25.5,2.75,3.5-14.75,3.5,15.25,14.25-5Z" style="fill:#fff;opacity:0.4;isolation:isolate"></path><path d="M128,183.28s3.67-2.93,10.23-.59l.89,3.34s-5.63,2.13-8.47,1.57S128,183.28,128,183.28Z" style="fill:#C53F3F"></path><path d="M128,183.28s3.67-2.93,10.23-.59l.89,3.34s-5.63,2.13-8.47,1.57S128,183.28,128,183.28Z" style="opacity:0.2;isolation:isolate"></path><path d="M121,217.06c-.34-1.68-.74-3.47-1.23-5.39-.31-1.22-.65-2.5-1-3.86,1-3.41,2-.75,2-.75A30.73,30.73,0,0,1,121,217.06Z" style="opacity:0.2;isolation:isolate"></path><path d="M139.45,185.78a7.91,7.91,0,0,0-1-.41c-.72-.57-1.59-1.94-1.55-5.27a27.19,27.19,0,0,1,.36-3.91L128,174.46s3.16,6.24.52,10.88c-.9.4-1.44,1-1.35,1.72.7,5.36,12.21,10.54,12.21,10.54S145,188.85,139.45,185.78Z" style="fill:#eec1bb"></path><path d="M137.3,176.19a27.19,27.19,0,0,0-.36,3.91c-6.26,0-8.91-5.64-8.91-5.64Z" style="opacity:0.2;isolation:isolate"></path><path d="M133.16,145.6S144,144.23,146,153a13.47,13.47,0,0,1-4.75,13.62Z" style="fill:#263238"></path><path d="M132.18,150.27c8.06-.44,10.89,3.73,11.93,12,1.31,10.34-.59,17.84-10.79,16.18C119.47,176.19,118.79,151,132.18,150.27Z" style="fill:#eec1bb"></path><path d="M138.88,162.11a17,17,0,0,0,2.53,3.21,2.21,2.21,0,0,1-2.08,1Z" style="fill:#d4827d"></path><path d="M133.91,161.72c.05.66-.27,1.22-.71,1.26s-.84-.47-.89-1.14.27-1.22.71-1.26S133.86,161.06,133.91,161.72Z" style="fill:#263238"></path><path d="M132.84,160.63l1.39-.68S133.61,161.22,132.84,160.63Z" style="fill:#263238"></path><path d="M142.12,160.94c0,.66-.27,1.22-.71,1.26s-.84-.48-.89-1.14.26-1.22.71-1.26S142.07,160.28,142.12,160.94Z" style="fill:#263238"></path><path d="M141,159.85l1.4-.68S141.82,160.44,141,159.85Z" style="fill:#263238"></path><path d="M133.52,156.16a4.21,4.21,0,0,0-3.43,1.41" style="fill:none;stroke:#263238;stroke-linecap:round;stroke-linejoin:round;stroke-width:0.686238px"></path><path d="M139.36,155.5a3.76,3.76,0,0,1,3.25.48" style="fill:none;stroke:#263238;stroke-linecap:round;stroke-linejoin:round;stroke-width:0.686238px"></path><path d="M124.11,164.33s3.41-6.82,2.56-11.9c0,0,15.61-7.4,17.29,8.76,0,0,.77-14.48-13.1-14s-12.71,20.71-5.22,26.35C125.64,173.5,122,168.6,124.11,164.33Z" style="fill:#263238"></path><path d="M134.54,145s6.62-1.63,8.5.12-11.5,14.13-18.5,15.38c0,0-2.38,7.75-.5,11.37,0,0-7.88-2.75-8.25-14.75S128,140.6,134.54,145Z" style="fill:#263238"></path><path d="M125.52,166a3.54,3.54,0,0,0-4-3c-2.48.41-3.39,5.6,2.89,6.5C125.33,169.56,125.78,168.67,125.52,166Z" style="fill:#eec1bb"></path><path d="M122,149.73s-2.75-7-10.13-6.5-8.5,12-4.62,20.5S108.54,175,108.54,175s4.12-.5,4.12-8.13a27.51,27.51,0,0,1,.25,4.88s2.75-3.88.13-11.25,5.75-4,5.75-4Z" style="fill:#263238"></path><path d="M142.41,145.73s-3.5,11.25-12.87,14.62" style="fill:none;stroke:#263238;stroke-linecap:round;stroke-linejoin:round;stroke-width:0.686238px"></path><path d="M133,169.23a6.45,6.45,0,0,0,4.62,1.87" style="fill:none;stroke:#263238;stroke-linecap:round;stroke-linejoin:round;stroke-width:0.686238px"></path><path d="M128,183.28s1.66,3.37,7.32,5.77l2.31,3.73v-4.25a13.15,13.15,0,0,0,.6-5.84l1.88,3.55a3,3,0,0,1,2.27,2.38c.6,2.18-2.62,10-2.62,10s-10.29-3.69-12.6-8.32c-1.71-3.45.34-4.28.34-4.28Z" style="fill:#C53F3F"></path><path d="M141.43,201.48a.74.74,0,1,1-.74-.74A.74.74,0,0,1,141.43,201.48Z" style="fill:#263238"></path><path d="M143.23,213.05a.74.74,0,1,1-.74-.74A.74.74,0,0,1,143.23,213.05Z" style="fill:#263238"></path><path d="M144,227.07a.74.74,0,1,1-.74-.74A.74.74,0,0,1,144,227.07Z" style="fill:#263238"></path><path d="M144.61,241.76a.74.74,0,1,1-.74-.74A.74.74,0,0,1,144.61,241.76Z" style="fill:#263238"></path><path d="M202.7,192a30.08,30.08,0,0,1,15.2-3.18l5.57,5.86S218.72,193.53,208,196Z" style="fill:#C53F3F"></path><path d="M202.7,192a30.08,30.08,0,0,1,15.2-3.18l5.57,5.86S218.72,193.53,208,196Z" style="opacity:0.4;isolation:isolate"></path><path d="M202.64,191.55a30.11,30.11,0,0,1,15-4l5.88,5.55s-4.81-.85-15.39,2.15Z" style="fill:#C53F3F"></path><path d="M202.64,191.55a30.11,30.11,0,0,1,15-4l5.88,5.55s-4.81-.85-15.39,2.15Z" style="opacity:0.2;isolation:isolate"></path><path d="M203.07,190.78l5.39,4.49a27.34,27.34,0,0,1,17.15-2.7l-6.77-5.95S209,185.48,203.07,190.78Z" style="fill:#C53F3F"></path><path d="M204.44,190.89l3.78,3.34s7.71-4.12,15.33-2.6l-5-4.55S210,186,204.44,190.89Z" style="opacity:0.2;isolation:isolate"></path><path d="M215.05,189.42c0,.81-.88,1.47-2,1.47s-2-.66-2-1.47.88-1.48,2-1.48S215.05,188.6,215.05,189.42Z" style="fill:#C53F3F"></path><path d="M164.89,253.27c.37-5.57,3.82-22,3.82-22a33.75,33.75,0,0,1,4.76-2.68,26,26,0,0,1,7.89-1.51s1.57,20.73,0,23S164.45,259.86,164.89,253.27Z" style="fill:#263238"></path><path d="M168.71,231.26s2.47-22.07,8.95-21.13c0,0-5.12,1.08-7,21.85Z" style="fill:#263238"></path><path d="M145.84,220.8c1.15-.25,4.13-7.76,3.75-8.68S127,214.3,127,214.3l1.46,8.1Z" style="fill:#C53F3F"></path><path d="M145.84,220.8c1.15-.25,4.13-7.76,3.75-8.68S127,214.3,127,214.3l1.46,8.1Z" style="opacity:0.2;isolation:isolate"></path><path d="M117.84,214.45s23.7-3.37,24.76-3,3.24,9.36,3.24,9.36-20.53,3.25-22.32,2.73S117,215.69,117.84,214.45Z" style="fill:#C53F3F"></path><path d="M109.79,230.32l12.3-7.76s.94-2.59,2.08-3.12,8.63-1.52,9.36-.77.66,6.6-.75,7.37-8,.68-8.62.43L110.37,237Z" style="fill:#eec1bb"></path><path d="M112.79,189.05s8,11.68,6.87,21.68L109,228.39l7.16-3.66,3.25,6.12s-8.25,12.71-18.75,9.71S112.79,189.05,112.79,189.05Z" style="fill:#263238"></path><path d="M112.79,189.05s8,11.68,6.87,21.68L109,228.39l7.16-3.66,3.25,6.12s-8.25,12.71-18.75,9.71S112.79,189.05,112.79,189.05Z" style="fill:#fff;opacity:0.4;isolation:isolate"></path><polygon points="115.41 224.39 119.5 231.98 120.41 229.81 117.16 223.64 115.41 224.39" style="fill:#C53F3F"></polygon></g></svg>