<?xml version="1.0" standalone="no"?>
<!DOCTYPE svg PUBLIC "-//W3C//DTD SVG 20010904//EN"
 "http://www.w3.org/TR/2001/REC-SVG-20010904/DTD/svg10.dtd">
<svg version="1.0" xmlns="http://www.w3.org/2000/svg"
 width="7730.000000pt" height="7730.000000pt" viewBox="0 0 7730.000000 7730.000000"
 preserveAspectRatio="xMidYMid meet">

<g transform="translate(0.000000,7730.000000) scale(0.100000,-0.100000)"
fill="#000000" stroke="none">
<path d="M60308 45246 c-157 -56 -346 -266 -468 -520 -92 -194 -131 -351 -131
-532 0 -178 34 -345 102 -504 43 -102 72 -145 144 -215 147 -145 140 -222 -47
-497 -113 -168 -203 -241 -273 -224 -14 4 -48 34 -76 69 -28 34 -60 69 -72 78
-19 16 -20 21 -10 65 6 27 10 51 8 53 -7 7 -77 -111 -105 -178 -55 -128 -83
-255 -84 -376 -1 -100 1 -115 26 -168 33 -71 124 -164 193 -198 42 -20 64 -24
145 -24 101 0 263 22 258 35 -2 5 -45 41 -97 81 -149 114 -191 159 -191 200 0
43 35 99 120 194 79 89 137 170 195 273 50 89 65 102 119 102 79 0 142 -117
117 -216 -14 -54 -50 -114 -85 -141 -29 -24 -25 -33 17 -33 42 0 96 -28 111
-59 8 -14 23 -62 35 -106 34 -123 92 -235 148 -285 84 -74 200 -120 303 -120
77 0 97 16 105 85 9 72 63 183 114 234 22 22 88 72 148 112 349 233 484 378
552 590 95 296 48 696 -99 848 -68 70 -126 99 -325 163 -104 33 -212 72 -240
86 -262 131 -415 379 -445 720 -25 270 -29 303 -49 347 -15 34 -29 49 -55 60
-43 18 -60 18 -108 1z"/>
<path d="M55365 40243 c-11 -3 -137 -33 -280 -68 -143 -36 -987 -240 -1875
-455 -1127 -273 -1634 -400 -1678 -420 -162 -75 -264 -266 -235 -442 8 -45 86
-239 269 -668 142 -333 263 -609 270 -615 6 -5 95 -207 199 -447 103 -241 190
-438 194 -438 3 1 33 25 65 54 l60 54 -166 388 c-91 214 -274 644 -407 955
-155 363 -245 588 -252 626 -28 159 68 342 215 409 31 14 791 203 1827 455
1941 472 1853 454 1972 409 88 -33 168 -103 216 -188 9 -15 15 -11 55 28 25
24 46 50 46 57 0 33 -54 129 -101 178 -60 63 -112 96 -188 119 -51 15 -160 20
-206 9z"/>
<path d="M52576 36149 c-3 -63 -8 -140 -12 -173 -6 -61 1 -131 15 -155 8 -12
20 -10 71 13 l62 28 35 -33 c41 -40 47 -58 -73 220 l-92 215 -6 -115z"/>
<path d="M64520 27128 c-984 -473 -1795 -700 -2840 -795 -278 -25 -1115 -25
-1445 0 -275 21 -1045 98 -1270 127 -546 69 -827 148 -1044 294 -45 30 -83 51
-85 47 -2 -3 -9 -31 -15 -61 -5 -30 -41 -192 -80 -360 -497 -2171 -844 -4448
-1021 -6700 -11 -140 -24 -311 -30 -380 -41 -519 -93 -1632 -101 -2180 -9
-529 -2 -2207 9 -2540 24 -674 60 -1397 72 -1426 5 -13 23 -25 47 -32 21 -5
126 -35 233 -65 107 -30 227 -63 266 -73 l72 -18 75 80 c837 890 1405 1887
1656 2904 134 541 169 963 137 1626 -32 662 -17 993 65 1453 58 320 102 479
215 764 133 336 321 738 758 1622 353 713 1105 2184 1106 2161 0 -5 23 -241
50 -525 236 -2405 515 -4713 865 -7151 78 -543 208 -1414 221 -1486 5 -29 11
-33 65 -48 153 -43 249 -55 419 -52 120 2 191 9 260 24 175 38 168 33 227 147
154 297 346 812 498 1340 177 614 301 1169 455 2040 39 220 104 585 145 810
127 701 119 638 119 925 -1 549 -58 878 -270 1570 -215 700 -277 1024 -291
1535 -12 454 29 718 212 1345 115 394 168 593 216 815 138 645 199 1287 185
1965 -6 300 -10 361 -25 359 -3 0 -62 -28 -131 -61z"/>
<path d="M62519 13809 c-131 -13 -274 -74 -313 -134 -52 -79 38 -176 259 -281
275 -130 593 -180 729 -115 97 48 140 145 117 270 -15 78 -33 115 -68 138 -40
26 -267 23 -422 -5 -63 -12 -116 -20 -117 -19 -1 1 3 33 8 70 6 37 9 69 7 71
-10 9 -132 11 -200 5z"/>
<path d="M56308 12709 c-121 -16 -219 -64 -239 -116 -51 -135 445 -458 773
-503 177 -24 276 25 314 157 17 58 14 155 -6 208 -23 60 -126 86 -351 89 -76
0 -139 2 -139 3 0 1 4 12 9 25 26 71 24 77 -22 97 -87 37 -232 55 -339 40z"/>
</g>
</svg>
